# xmcd
#
# Track frame offsets:
#	150
#	10663
#	24149
#	36117
#	47385
#	58578
#	68502
#	80382
#	91956
#	102369
#	114750
#	123423
#	132789
#	144184
#	158336
#	169316
#	180174
#	193031
#	203051
#	213261
#	227014
#	240153
#	253395
#	264982
#	276719
#
# Disc length: 3840 seconds
#
# Revision: 2
# Processed by: cddbd v1.5.2PL0 Copyright (c) Steve Scherf et al.
# Submitted via: audiograbber 1.83.01
#
DISCID=3a0efe19
DTITLE=Various Artist - Giants Of Country  -  CD3
DYEAR=2011
DGENRE=Country
TTITLE0=Jim Reeves - He'll Have To Go
TTITLE1=Marty Robbins - A Castle In The Sky
TTITLE2=Frankie Laine - High Noon (Do Not Forsake Me)
TTITLE3=Hank Snow - A Fool Such As I
TTITLE4=Patsy Cline - Hungry For Love
TTITLE5=Johnny Cash - Ballad Of A Teenage Queen
TTITLE6=Johnny Horton - When It's Springtime In Alaska
TTITLE7=Faron Young - Country Girl
TTITLE8=George Jones - Treasure Of Love
TTITLE9=Jim Reeves - Am I Losing You?
TTITLE10=Don Gibson - Blue Blue Day
TTITLE11=Webb Pierce - Honky Tonk Song
TTITLE12=Eddy Arnold - The Cattle Call
TTITLE13=Slim Whitman - Indian Love Call
TTITLE14=Hank Snow - Let Me Go Lover
TTITLE15=Johnny Cash - I Heard That Lonesome Whistle Blow
TTITLE16=Jim Reeves - Have I Told You Lately That I Love You?
TTITLE17=Jimmie Rodgers - Oh Oh I'm Falling In Love Again
TTITLE18=Hank Thompson - Wake Up Irene
TTITLE19=Johnny Cash - Don't Take Your Guns To Town
TTITLE20=Kitty Wells and Red Foley - One By One
TTITLE21=Hank Snow - I Don't Hurt Anymore
TTITLE22=Hank Williams - Kaw Liga
TTITLE23=Patsy Cline - Let The Teardrops Fall
TTITLE24=Marty Robbins - The Story Of My Life
EXTD=YEAR: 2011
EXTT0=
EXTT1=
EXTT2=
EXTT3=
EXTT4=
EXTT5=
EXTT6=
EXTT7=
EXTT8=
EXTT9=
EXTT10=
EXTT11=
EXTT12=
EXTT13=
EXTT14=
EXTT15=
EXTT16=
EXTT17=
EXTT18=
EXTT19=
EXTT20=
EXTT21=
EXTT22=
EXTT23=
EXTT24=
PLAYORDER=
